<svg id="visual" viewBox="0 0 1920 3000" width="1920" height="3000" xmlns="http://www.w3.org/2000/svg" xmlns:xlink="http://www.w3.org/1999/xlink" version="1.1"><g><g transform="translate(1023 859)"><path d="M91.7 -48.4C110.6 -20.2 112 22.7 93.8 52.9C75.6 83.2 37.8 101 -3.6 103C-44.9 105.1 -89.9 91.5 -110.9 59.5C-132 27.6 -129.1 -22.6 -106.6 -52.9C-84.1 -83.2 -42.1 -93.6 -2.8 -92C36.4 -90.4 72.8 -76.7 91.7 -48.4Z" fill="#fff400"></path></g><g transform="translate(1254 219)"><path d="M74.7 -38.2C91.4 -14.2 95.9 21.9 81.4 43.1C66.9 64.2 33.5 70.5 4.1 68.1C-25.2 65.7 -50.4 54.7 -66.9 32.4C-83.3 10.1 -91 -23.4 -78.4 -45.1C-65.8 -66.7 -32.9 -76.5 -1.9 -75.4C29 -74.3 58 -62.2 74.7 -38.2Z" fill="#fff400"></path></g><g transform="translate(930 2132)"><path d="M53.5 -33.7C60.9 -18.2 52.5 3.6 40.9 21.3C29.4 38.9 14.7 52.5 -1.9 53.6C-18.5 54.7 -37 43.4 -47.3 26.4C-57.6 9.5 -59.6 -13.1 -50.4 -29.7C-41.1 -46.3 -20.6 -56.9 1.3 -57.7C23.1 -58.4 46.2 -49.2 53.5 -33.7Z" fill="#fff400"></path></g><g transform="translate(1604 1371)"><path d="M70.3 -45.1C83.2 -18.1 80.5 13.4 66.2 44.3C51.9 75.1 25.9 105.4 -4.9 108.2C-35.8 111 -71.5 86.5 -85.5 55.8C-99.5 25.2 -91.6 -11.6 -73.8 -41.4C-55.9 -71.2 -27.9 -94.1 0.4 -94.3C28.7 -94.5 57.3 -72.1 70.3 -45.1Z" fill="#fff400"></path></g><g transform="translate(605 1272)"><path d="M81.5 -48.1C95.3 -23.1 89 12.3 72.1 38.8C55.2 65.3 27.6 82.7 -6.6 86.5C-40.8 90.4 -81.7 80.6 -97.2 54.9C-112.6 29.3 -102.7 -12.1 -82.3 -40.9C-61.9 -69.7 -30.9 -85.8 1.4 -86.7C33.8 -87.5 67.7 -73 81.5 -48.1Z" fill="#fff400"></path></g><g transform="translate(556 433)"><path d="M51.5 -26.1C64.8 -6.7 72.2 19.6 62.6 37.9C53.1 56.2 26.5 66.4 -0.7 66.8C-27.9 67.2 -55.9 57.8 -65.7 39.4C-75.5 20.9 -67.1 -6.5 -53.2 -26.3C-39.2 -46.1 -19.6 -58.3 -0.2 -58.1C19.1 -58 38.2 -45.5 51.5 -26.1Z" fill="#fff400"></path></g><g transform="translate(1252 1989)"><path d="M56.5 -33.8C67.7 -13.3 67.4 12.7 56 31.3C44.7 49.9 22.3 61.1 -2.1 62.3C-26.6 63.6 -53.2 54.8 -66.8 34.9C-80.5 14.9 -81.2 -16.2 -67.9 -38C-54.6 -59.7 -27.3 -72.2 -2.3 -70.8C22.7 -69.5 45.3 -54.4 56.5 -33.8Z" fill="#fff400"></path></g><g transform="translate(293 2127)"><path d="M67.5 -38.9C78 -21 70.2 7.6 55.9 28.6C41.7 49.6 20.8 63.1 0 63.1C-20.8 63.1 -41.6 49.6 -56 28.4C-70.4 7.3 -78.5 -21.3 -68.1 -39.2C-57.7 -57.2 -28.9 -64.4 -0.1 -64.3C28.6 -64.2 57.1 -56.8 67.5 -38.9Z" fill="#fff400"></path></g><g transform="translate(1745 319)"><path d="M57.5 -35.8C70.3 -11.2 73.3 16.5 62.1 36.6C50.9 56.8 25.5 69.5 1.6 68.6C-22.3 67.7 -44.7 53.2 -57.4 32.1C-70.2 11 -73.4 -16.6 -62.2 -40.3C-51.1 -64.1 -25.5 -84 -1.6 -83.1C22.4 -82.2 44.8 -60.5 57.5 -35.8Z" fill="#fff400"></path></g><g transform="translate(214 1468)"><path d="M85.2 -44.4C103.2 -18 105.6 22.2 88.8 49.6C72 77 36 91.6 2.2 90.3C-31.5 89 -63.1 71.8 -74.9 47.3C-86.6 22.8 -78.7 -9 -62.9 -34.1C-47.1 -59.2 -23.6 -77.6 5 -80.5C33.6 -83.4 67.2 -70.8 85.2 -44.4Z" fill="#fff400"></path></g></g></svg>